<svg width="30" height="30" viewBox="0 0 30 30" fill="none" xmlns="http://www.w3.org/2000/svg">
<circle cx="15" cy="15" r="14.5" stroke="#F3F3F3"/>
<path d="M12.5765 22V20.0094L12.6046 18.5948C12.6383 18.1547 12.822 17.74 13.1242 17.4189C13.1287 17.4141 13.1331 17.4095 13.1376 17.4048C13.1493 17.3927 13.1416 17.3731 13.1242 17.3711C11.1046 17.1358 9.00042 16.3399 9.00042 12.8747C8.98725 12.0213 9.28558 11.1939 9.83698 10.545C9.85627 10.5223 9.87586 10.4998 9.89577 10.4776C9.92168 10.4486 9.93015 10.4093 9.91828 10.3733C9.91756 10.3711 9.91684 10.3689 9.91613 10.3667C9.90267 10.3255 9.89003 10.2841 9.87823 10.2425C9.67554 9.52813 9.71913 8.76505 10.0044 8.07636C10.0065 8.07128 10.0086 8.0662 10.0108 8.06112C10.0214 8.03577 10.0438 8.0164 10.0725 8.01161C10.2516 7.98181 10.9753 7.94193 12.3608 8.83491C12.4039 8.8627 12.4477 8.8914 12.4921 8.92103C12.5242 8.94242 12.565 8.94897 12.6029 8.9389L12.6065 8.93795C12.6808 8.91821 12.7554 8.89949 12.8301 8.88177C14.1472 8.56954 15.5195 8.56954 16.8365 8.88177C16.9074 8.89857 16.9781 8.91628 17.0487 8.93488L17.0532 8.9361C17.0978 8.94789 17.1457 8.94019 17.1835 8.91508C17.2248 8.88755 17.2656 8.86084 17.3058 8.83491C18.6881 7.94381 19.4078 7.98164 19.5877 8.01143C19.617 8.01627 19.6398 8.036 19.6508 8.0618C19.6522 8.06512 19.6536 8.06844 19.655 8.07176C19.9451 8.76075 19.9912 9.52611 19.7883 10.2425C19.7762 10.2852 19.7632 10.3277 19.7494 10.3701C19.7369 10.4081 19.7459 10.4495 19.7732 10.4801L19.7757 10.483C19.794 10.5035 19.812 10.5242 19.8297 10.545C20.3811 11.1939 20.6794 12.0213 20.6662 12.8747C20.6662 16.3588 18.5471 17.1338 16.5178 17.345C16.5061 17.3462 16.5008 17.3593 16.5087 17.3675C16.5117 17.3706 16.5148 17.3737 16.5178 17.3768C16.7226 17.5897 16.8814 17.8423 16.9842 18.1191C17.0917 18.4085 17.1355 18.7175 17.1126 19.0253V22" stroke="white" stroke-linecap="round" stroke-linejoin="round"/>
<path d="M9 18C9.21382 18.0209 9.41795 18.0753 9.59696 18.1589C9.77597 18.2426 9.92515 18.3533 10.0332 18.4829C10.125 18.5982 10.2488 18.6998 10.3974 18.7819C10.5461 18.8639 10.7167 18.9249 10.8994 18.9612C11.0821 18.9975 11.2734 19.0085 11.4623 18.9935C11.6512 18.9785 11.8339 18.9378 12 18.8737" stroke="white" stroke-linecap="round" stroke-linejoin="round"/>
</svg>
