<svg width="30" height="30" viewBox="0 0 30 30" fill="none" xmlns="http://www.w3.org/2000/svg">
<circle cx="15" cy="15" r="14.5" stroke="#F3F3F3"/>
<path d="M12.06 8H17.94C20.18 8 22 9.82 22 12.06V17.94C22 19.0168 21.5723 20.0495 20.8109 20.8109C20.0495 21.5723 19.0168 22 17.94 22H12.06C9.82 22 8 20.18 8 17.94V12.06C8 10.9832 8.42775 9.95054 9.18915 9.18915C9.95054 8.42775 10.9832 8 12.06 8ZM11.92 9.4C11.2517 9.4 10.6107 9.6655 10.1381 10.1381C9.6655 10.6107 9.4 11.2517 9.4 11.92V18.08C9.4 19.473 10.527 20.6 11.92 20.6H18.08C18.7483 20.6 19.3893 20.3345 19.8619 19.8619C20.3345 19.3893 20.6 18.7483 20.6 18.08V11.92C20.6 10.527 19.473 9.4 18.08 9.4H11.92ZM18.675 10.45C18.9071 10.45 19.1296 10.5422 19.2937 10.7063C19.4578 10.8704 19.55 11.0929 19.55 11.325C19.55 11.5571 19.4578 11.7796 19.2937 11.9437C19.1296 12.1078 18.9071 12.2 18.675 12.2C18.4429 12.2 18.2204 12.1078 18.0563 11.9437C17.8922 11.7796 17.8 11.5571 17.8 11.325C17.8 11.0929 17.8922 10.8704 18.0563 10.7063C18.2204 10.5422 18.4429 10.45 18.675 10.45ZM15 11.5C15.9283 11.5 16.8185 11.8687 17.4749 12.5251C18.1313 13.1815 18.5 14.0717 18.5 15C18.5 15.9283 18.1313 16.8185 17.4749 17.4749C16.8185 18.1313 15.9283 18.5 15 18.5C14.0717 18.5 13.1815 18.1313 12.5251 17.4749C11.8687 16.8185 11.5 15.9283 11.5 15C11.5 14.0717 11.8687 13.1815 12.5251 12.5251C13.1815 11.8687 14.0717 11.5 15 11.5ZM15 12.9C14.443 12.9 13.9089 13.1212 13.5151 13.5151C13.1212 13.9089 12.9 14.443 12.9 15C12.9 15.557 13.1212 16.0911 13.5151 16.4849C13.9089 16.8788 14.443 17.1 15 17.1C15.557 17.1 16.0911 16.8788 16.4849 16.4849C16.8788 16.0911 17.1 15.557 17.1 15C17.1 14.443 16.8788 13.9089 16.4849 13.5151C16.0911 13.1212 15.557 12.9 15 12.9Z" fill="white"/>
</svg>
