<svg width="30" height="30" viewBox="0 0 30 30" fill="none" xmlns="http://www.w3.org/2000/svg">
<circle cx="15" cy="15" r="14.5" stroke="#F3F3F3"/>
<path fill-rule="evenodd" clip-rule="evenodd" d="M11.325 22V12.5538H8.18559V21.9999H11.325V22ZM9.75562 11.2645C10.85 11.2645 11.5318 10.5385 11.5318 9.63208C11.5111 8.70547 10.85 8 9.77614 8C8.70206 8.00003 8 8.7055 8 9.63211C8 10.5386 8.68137 11.2645 9.73495 11.2645L9.75562 11.2645ZM13.0625 22C13.0625 22 13.1037 13.4401 13.0625 12.5538H16.2024V13.9237H16.1816C16.5944 13.2791 17.3382 12.332 19.0318 12.332C21.0979 12.332 22.6466 13.6821 22.6466 16.5836V22H19.5072V16.9465C19.5072 15.6768 19.053 14.8103 17.9165 14.8103C17.0494 14.8103 16.5326 15.3944 16.3056 15.9591C16.2226 16.1601 16.2024 16.4424 16.2024 16.7247V22H13.0625Z" fill="white"/>
</svg>
