<svg width="318" height="79" viewBox="0 0 318 79" fill="none" xmlns="http://www.w3.org/2000/svg">
<path fill-rule="evenodd" clip-rule="evenodd" d="M66.023 14.028C66.023 14.028 69.0015 11.2026 69.0015 6.39156C69.0015 3.29089 66.4282 1.50317 64.5987 0.624778C63.3569 0.0278413 61.9527 -0.157735 60.6073 0.139187L60.5964 0.141507L60.5856 0.143827C59.285 0.436109 58.334 1.56658 58.2504 2.89654C58.2242 3.3311 58.2566 3.7904 58.4066 4.21723C58.4309 4.28591 58.434 4.35987 58.4371 4.43394V4.43397V4.43402C58.4388 4.47333 58.4405 4.51267 58.4453 4.55126C58.4581 4.64383 58.6021 4.82818 58.9629 5.29026L59.0608 5.41574L65.358 13.5656C65.358 13.5656 65.8807 14.226 66.023 14.028ZM26.6624 16.6112C28.0929 17.0412 30.6492 17.1602 32.4524 17.1881C33.3878 17.2021 34.1729 17.8314 34.4203 18.6893C34.6674 17.8314 35.4518 17.2021 36.3884 17.1881C38.1916 17.1602 40.7479 17.0412 42.1784 16.6112C42.4242 16.537 42.65 16.4133 42.8495 16.254C44.1114 15.2473 49.7329 10.979 54.281 10.979C58.8338 10.979 58.3761 14.8761 58.2075 15.787C58.1828 15.9215 58.1441 16.053 58.0931 16.1798C57.759 17.0149 56.2358 20.0521 52.1531 18.7438C52.1531 18.7438 50.9422 18.4005 50.2123 16.5989C49.6803 15.2859 47.9946 14.8916 46.9198 15.8164C46.7636 15.9509 46.5997 16.0994 46.4281 16.2648C46.3616 16.3298 46.2904 16.3901 46.2162 16.4458C45.695 16.8308 43.4418 18.5861 44.3527 19.582C44.3527 19.582 45.6997 20.7883 44.9976 23.0724C44.9373 23.2673 44.8955 23.4683 44.8955 23.6724C44.8955 23.8518 44.9202 24.0575 45.0115 24.2199C45.0115 24.2199 45.0563 24.973 47.4797 26.1653C47.5663 26.2086 47.656 26.2442 47.7487 26.2736C49.487 26.8396 67.7554 33.0889 67.7554 45.4885C67.7554 58.5082 58.2183 62.928 48.0008 62.928C48.0008 62.928 47.4008 62.9033 47.4982 64.1559C47.509 64.3028 47.5044 64.4497 47.4843 64.5967C47.291 65.99 45.9579 72.5053 37.6008 78.1515C36.367 78.9842 34.7484 78.2815 34.4204 76.9332C34.0924 78.2815 32.4738 78.9842 31.24 78.1515C22.8829 72.5053 21.5498 65.99 21.3565 64.5967C21.3364 64.4497 21.3318 64.3028 21.3426 64.1559C21.44 62.9033 20.84 62.928 20.84 62.928C10.6225 62.928 1.08538 58.5082 1.08538 45.4885C1.08538 33.0873 19.3554 26.8396 21.0921 26.2736C21.1848 26.2442 21.2745 26.2086 21.3611 26.1653C23.7845 24.973 23.8293 24.2199 23.8293 24.2199C23.9206 24.0575 23.9453 23.8518 23.9453 23.6724C23.9453 23.4683 23.9035 23.2673 23.8432 23.0724C23.1411 20.7883 24.4881 19.582 24.4881 19.582C25.399 18.5861 23.1458 16.8308 22.6246 16.4458C22.5504 16.3901 22.4792 16.3298 22.4127 16.2648C22.2411 16.0994 22.0772 15.9509 21.921 15.8164C20.8462 14.8916 19.1605 15.2859 18.6285 16.5989C17.8986 18.4005 16.6877 18.7438 16.6877 18.7438C12.605 20.0521 11.0818 17.0149 10.7477 16.1798C10.6967 16.053 10.658 15.9215 10.6333 15.787C10.4647 14.8761 10.007 10.979 14.5598 10.979C19.1064 10.979 24.7278 15.2473 25.9913 16.254C26.1908 16.4133 26.4166 16.537 26.6624 16.6112ZM34.482 70.7226L34.4858 70.7224L34.482 70.7222L34.4825 69.3263C34.4789 69.3263 34.4753 69.3259 34.4717 69.3251C34.4699 69.3249 34.4682 69.3245 34.4665 69.3242C34.4653 69.3239 34.4641 69.3236 34.4628 69.3233V70.7211L34.482 70.7222V70.7226ZM34.3582 69.252L34.3588 70.7163C33.7644 70.6924 31.5091 70.6519 30.3222 71.3421C30.3222 71.3421 24.7286 69.3286 26.1854 65.3696C27.6391 61.4091 31.281 55.7723 33.0007 55.2913C33.0007 55.2913 33.6007 54.798 33.6007 55.6594C33.6007 55.731 33.5993 55.8801 33.5972 56.0937C33.5746 58.4094 33.4781 68.3054 34.3582 69.252ZM34.5054 69.3235V70.7213C34.8621 70.7027 37.3708 70.6007 38.646 71.3423C38.646 71.3423 44.2396 69.3288 42.7828 65.3698C41.3292 61.4093 37.6872 55.7724 35.9676 55.2915C35.9676 55.2915 35.3675 54.7982 35.3675 55.6596C35.3675 55.7312 35.369 55.8803 35.3711 56.0939C35.394 58.4497 35.4935 68.6509 34.5634 69.2932C34.5634 69.2932 34.5367 69.3155 34.5054 69.3235ZM30.9239 36.2914C31.2162 36.5837 31.0708 36.9765 31.0708 36.9765C31.0708 40.6354 28.2841 47.1353 28.2841 47.1353C28.2841 47.1353 18.5831 65.232 9.16044 55.8079C-0.262196 46.3837 7.47015 38.1425 7.47015 38.1425C11.9472 32.334 23.1235 28.9178 23.1235 28.9178C23.5132 28.5281 24.1071 28.9178 24.1071 28.9178L30.9239 36.2914ZM37.0207 36.9765C37.0207 36.9765 36.8753 36.5837 37.1676 36.2914L43.9844 28.9178C43.9844 28.9178 44.5783 28.5281 44.968 28.9178C44.968 28.9178 56.1443 32.334 60.6213 38.1425C60.6213 38.1425 68.3537 46.3837 58.931 55.8079C49.5084 65.232 39.8074 47.1368 39.8074 47.1368C39.8074 47.1368 37.0207 40.6354 37.0207 36.9765ZM0 6.39156C0 11.2026 2.9785 14.028 2.9785 14.028C3.1179 14.2199 3.61183 13.6054 3.64345 13.5661C3.64445 13.5648 3.64498 13.5641 3.64503 13.5641L9.94071 5.41574C9.975 5.37178 10.0076 5.33 10.0386 5.29026C10.3994 4.82818 10.5434 4.64383 10.5562 4.55126C10.5619 4.51061 10.5636 4.46914 10.5653 4.42774C10.5683 4.35575 10.5713 4.284 10.5949 4.21723C10.7449 3.7904 10.7774 3.3311 10.7511 2.89654C10.6676 1.56658 9.71647 0.436109 8.41589 0.143827C8.41202 0.143053 8.40854 0.14228 8.40507 0.141507C8.40159 0.140734 8.39811 0.13996 8.39424 0.139187C7.04881 -0.157735 5.64462 0.0278413 4.4028 0.624779C2.57333 1.50472 0 3.29089 0 6.39156Z" fill="white"/>
<path d="M121.32 28.816C123.208 29.168 124.76 30.112 125.976 31.648C127.192 33.184 127.8 34.944 127.8 36.928C127.8 38.72 127.352 40.304 126.456 41.68C125.592 43.024 124.328 44.08 122.664 44.848C121 45.616 119.032 46 116.76 46H102.312V12.496H116.136C118.408 12.496 120.36 12.864 121.992 13.6C123.656 14.336 124.904 15.36 125.736 16.672C126.6 17.984 127.032 19.472 127.032 21.136C127.032 23.088 126.504 24.72 125.448 26.032C124.424 27.344 123.048 28.272 121.32 28.816ZM109.032 26.32H115.176C116.776 26.32 118.008 25.968 118.872 25.264C119.736 24.528 120.168 23.488 120.168 22.144C120.168 20.8 119.736 19.76 118.872 19.024C118.008 18.288 116.776 17.92 115.176 17.92H109.032V26.32ZM115.8 40.528C117.432 40.528 118.696 40.144 119.592 39.376C120.52 38.608 120.984 37.52 120.984 36.112C120.984 34.672 120.504 33.552 119.544 32.752C118.584 31.92 117.288 31.504 115.656 31.504H109.032V40.528H115.8ZM139.876 17.92V26.32H151.156V31.648H139.876V40.528H152.596V46H133.156V12.448H152.596V17.92H139.876ZM165.423 17.92V26.32H176.703V31.648H165.423V40.528H178.143V46H158.703V12.448H178.143V17.92H165.423ZM216.231 39.616H202.887L200.679 46H193.623L205.671 12.448H213.495L225.543 46H218.439L216.231 39.616ZM214.407 34.24L209.559 20.224L204.711 34.24H214.407ZM260.142 12.496L247.854 46H239.694L227.406 12.496H234.606L243.822 39.136L252.99 12.496H260.142ZM270.891 17.92V26.32H282.171V31.648H270.891V40.528H283.611V46H264.171V12.448H283.611V17.92H270.891ZM306.998 46L299.606 32.944H296.438V46H289.718V12.496H302.294C304.886 12.496 307.094 12.96 308.918 13.888C310.742 14.784 312.102 16.016 312.998 17.584C313.926 19.12 314.39 20.848 314.39 22.768C314.39 24.976 313.75 26.976 312.47 28.768C311.19 30.528 309.286 31.744 306.758 32.416L314.774 46H306.998ZM296.438 27.904H302.054C303.878 27.904 305.238 27.472 306.134 26.608C307.03 25.712 307.478 24.48 307.478 22.912C307.478 21.376 307.03 20.192 306.134 19.36C305.238 18.496 303.878 18.064 302.054 18.064H296.438V27.904Z" fill="white"/>
<path d="M110.602 60.151V61.409H107.372V72H105.825V61.409H102.578V60.151H110.602ZM121.006 66.985C121.006 67.2797 120.989 67.5913 120.955 67.92H113.509C113.566 68.838 113.878 69.5577 114.444 70.079C115.022 70.589 115.719 70.844 116.535 70.844C117.204 70.844 117.759 70.691 118.201 70.385C118.655 70.0677 118.972 69.6483 119.153 69.127H120.819C120.57 70.0223 120.071 70.7533 119.323 71.32C118.575 71.8753 117.646 72.153 116.535 72.153C115.651 72.153 114.858 71.9547 114.155 71.558C113.464 71.1613 112.92 70.6003 112.523 69.875C112.127 69.1383 111.928 68.2883 111.928 67.325C111.928 66.3617 112.121 65.5173 112.506 64.792C112.892 64.0667 113.43 63.5113 114.121 63.126C114.824 62.7293 115.629 62.531 116.535 62.531C117.419 62.531 118.201 62.7237 118.881 63.109C119.561 63.4943 120.083 64.027 120.445 64.707C120.819 65.3757 121.006 66.135 121.006 66.985ZM119.408 66.662C119.408 66.0727 119.278 65.5683 119.017 65.149C118.757 64.7183 118.4 64.3953 117.946 64.18C117.504 63.9533 117.011 63.84 116.467 63.84C115.685 63.84 115.017 64.0893 114.461 64.588C113.917 65.0867 113.606 65.778 113.526 66.662H119.408ZM122.47 67.325C122.47 66.3617 122.663 65.523 123.048 64.809C123.434 64.0837 123.966 63.5227 124.646 63.126C125.338 62.7293 126.125 62.531 127.009 62.531C128.154 62.531 129.095 62.8087 129.831 63.364C130.579 63.9193 131.072 64.69 131.31 65.676H129.644C129.486 65.1093 129.174 64.6617 128.709 64.333C128.256 64.0043 127.689 63.84 127.009 63.84C126.125 63.84 125.411 64.146 124.867 64.758C124.323 65.3587 124.051 66.2143 124.051 67.325C124.051 68.447 124.323 69.314 124.867 69.926C125.411 70.538 126.125 70.844 127.009 70.844C127.689 70.844 128.256 70.6853 128.709 70.368C129.163 70.0507 129.474 69.5973 129.644 69.008H131.31C131.061 69.96 130.562 70.725 129.814 71.303C129.066 71.8697 128.131 72.153 127.009 72.153C126.125 72.153 125.338 71.9547 124.646 71.558C123.966 71.1613 123.434 70.6003 123.048 69.875C122.663 69.1497 122.47 68.2997 122.47 67.325ZM137.998 62.514C138.701 62.514 139.336 62.667 139.902 62.973C140.469 63.2677 140.911 63.7153 141.228 64.316C141.557 64.9167 141.721 65.6477 141.721 66.509V72H140.191V66.73C140.191 65.8007 139.959 65.0923 139.494 64.605C139.03 64.1063 138.395 63.857 137.59 63.857C136.774 63.857 136.123 64.112 135.635 64.622C135.159 65.132 134.921 65.8743 134.921 66.849V72H133.374V59.42H134.921V64.01C135.227 63.534 135.647 63.1657 136.179 62.905C136.723 62.6443 137.33 62.514 137.998 62.514ZM156.703 63.619C156.703 64.605 156.363 65.4267 155.683 66.084C155.014 66.73 153.988 67.053 152.606 67.053H150.328V72H148.781V60.151H152.606C153.943 60.151 154.957 60.474 155.649 61.12C156.351 61.766 156.703 62.599 156.703 63.619ZM152.606 65.778C153.467 65.778 154.102 65.591 154.51 65.217C154.918 64.843 155.122 64.3103 155.122 63.619C155.122 62.157 154.283 61.426 152.606 61.426H150.328V65.778H152.606ZM162.093 70.572L164.983 62.684H166.632L162.977 72H161.175L157.52 62.684H159.186L162.093 70.572ZM170.042 63.959V69.45C170.042 69.9033 170.138 70.2263 170.331 70.419C170.523 70.6003 170.858 70.691 171.334 70.691H172.473V72H171.079C170.217 72 169.571 71.8017 169.141 71.405C168.71 71.0083 168.495 70.3567 168.495 69.45V63.959H167.288V62.684H168.495V60.338H170.042V62.684H172.473V63.959H170.042ZM174.84 72.102C174.545 72.102 174.296 72 174.092 71.796C173.888 71.592 173.786 71.3427 173.786 71.048C173.786 70.7533 173.888 70.504 174.092 70.3C174.296 70.096 174.545 69.994 174.84 69.994C175.123 69.994 175.361 70.096 175.554 70.3C175.758 70.504 175.86 70.7533 175.86 71.048C175.86 71.3427 175.758 71.592 175.554 71.796C175.361 72 175.123 72.102 174.84 72.102ZM183.996 70.742H188.144V72H182.449V60.151H183.996V70.742ZM191.674 63.959V69.45C191.674 69.9033 191.77 70.2263 191.963 70.419C192.155 70.6003 192.49 70.691 192.966 70.691H194.105V72H192.711C191.849 72 191.203 71.8017 190.773 71.405C190.342 71.0083 190.127 70.3567 190.127 69.45V63.959H188.92V62.684H190.127V60.338H191.674V62.684H194.105V63.959H191.674ZM195.401 67.308C195.401 66.356 195.594 65.523 195.979 64.809C196.364 64.0837 196.891 63.5227 197.56 63.126C198.24 62.7293 198.999 62.531 199.838 62.531C200.563 62.531 201.238 62.701 201.861 63.041C202.484 63.3697 202.96 63.806 203.289 64.35V59.42H204.853V72H203.289V70.249C202.983 70.8043 202.53 71.2633 201.929 71.626C201.328 71.9773 200.626 72.153 199.821 72.153C198.994 72.153 198.24 71.949 197.56 71.541C196.891 71.133 196.364 70.5607 195.979 69.824C195.594 69.0873 195.401 68.2487 195.401 67.308ZM203.289 67.325C203.289 66.6223 203.147 66.0103 202.864 65.489C202.581 64.9677 202.195 64.571 201.708 64.299C201.232 64.0157 200.705 63.874 200.127 63.874C199.549 63.874 199.022 64.01 198.546 64.282C198.07 64.554 197.69 64.9507 197.407 65.472C197.124 65.9933 196.982 66.6053 196.982 67.308C196.982 68.022 197.124 68.6453 197.407 69.178C197.69 69.6993 198.07 70.1017 198.546 70.385C199.022 70.657 199.549 70.793 200.127 70.793C200.705 70.793 201.232 70.657 201.708 70.385C202.195 70.1017 202.581 69.6993 202.864 69.178C203.147 68.6453 203.289 68.0277 203.289 67.325ZM209.065 69.858L207.161 74.431H206.124L207.365 69.858H209.065ZM221.796 72L216.917 66.594V72H215.37V60.151H216.917V65.642L221.813 60.151H223.768L218.396 66.084L223.819 72H221.796ZM224.968 67.308C224.968 66.356 225.161 65.523 225.546 64.809C225.932 64.0837 226.459 63.5227 227.127 63.126C227.807 62.7293 228.561 62.531 229.388 62.531C230.204 62.531 230.913 62.7067 231.513 63.058C232.114 63.4093 232.562 63.8513 232.856 64.384V62.684H234.42V72H232.856V70.266C232.55 70.81 232.091 71.2633 231.479 71.626C230.879 71.9773 230.176 72.153 229.371 72.153C228.544 72.153 227.796 71.949 227.127 71.541C226.459 71.133 225.932 70.5607 225.546 69.824C225.161 69.0873 224.968 68.2487 224.968 67.308ZM232.856 67.325C232.856 66.6223 232.715 66.0103 232.431 65.489C232.148 64.9677 231.763 64.571 231.275 64.299C230.799 64.0157 230.272 63.874 229.694 63.874C229.116 63.874 228.589 64.01 228.113 64.282C227.637 64.554 227.258 64.9507 226.974 65.472C226.691 65.9933 226.549 66.6053 226.549 67.308C226.549 68.022 226.691 68.6453 226.974 69.178C227.258 69.6993 227.637 70.1017 228.113 70.385C228.589 70.657 229.116 70.793 229.694 70.793C230.272 70.793 230.799 70.657 231.275 70.385C231.763 70.1017 232.148 69.6993 232.431 69.178C232.715 68.6453 232.856 68.0277 232.856 67.325ZM238.922 63.959V69.45C238.922 69.9033 239.018 70.2263 239.211 70.419C239.403 70.6003 239.738 70.691 240.214 70.691H241.353V72H239.959C239.097 72 238.451 71.8017 238.021 71.405C237.59 71.0083 237.375 70.3567 237.375 69.45V63.959H236.168V62.684H237.375V60.338H238.922V62.684H241.353V63.959H238.922ZM247.851 62.514C248.554 62.514 249.188 62.667 249.755 62.973C250.322 63.2677 250.764 63.7153 251.081 64.316C251.41 64.9167 251.574 65.6477 251.574 66.509V72H250.044V66.73C250.044 65.8007 249.812 65.0923 249.347 64.605C248.882 64.1063 248.248 63.857 247.443 63.857C246.627 63.857 245.975 64.112 245.488 64.622C245.012 65.132 244.774 65.8743 244.774 66.849V72H243.227V59.42H244.774V64.01C245.08 63.534 245.499 63.1657 246.032 62.905C246.576 62.6443 247.182 62.514 247.851 62.514ZM265.304 62.514C266.029 62.514 266.675 62.667 267.242 62.973C267.809 63.2677 268.256 63.7153 268.585 64.316C268.914 64.9167 269.078 65.6477 269.078 66.509V72H267.548V66.73C267.548 65.8007 267.316 65.0923 266.851 64.605C266.398 64.1063 265.78 63.857 264.998 63.857C264.193 63.857 263.553 64.1177 263.077 64.639C262.601 65.149 262.363 65.8913 262.363 66.866V72H260.833V66.73C260.833 65.8007 260.601 65.0923 260.136 64.605C259.683 64.1063 259.065 63.857 258.283 63.857C257.478 63.857 256.838 64.1177 256.362 64.639C255.886 65.149 255.648 65.8913 255.648 66.866V72H254.101V62.684H255.648V64.027C255.954 63.5397 256.362 63.1657 256.872 62.905C257.393 62.6443 257.966 62.514 258.589 62.514C259.371 62.514 260.062 62.6897 260.663 63.041C261.264 63.3923 261.711 63.908 262.006 64.588C262.267 63.9307 262.697 63.4207 263.298 63.058C263.899 62.6953 264.567 62.514 265.304 62.514ZM271.038 67.308C271.038 66.356 271.23 65.523 271.616 64.809C272.001 64.0837 272.528 63.5227 273.197 63.126C273.877 62.7293 274.63 62.531 275.458 62.531C276.274 62.531 276.982 62.7067 277.583 63.058C278.183 63.4093 278.631 63.8513 278.926 64.384V62.684H280.49V72H278.926V70.266C278.62 70.81 278.161 71.2633 277.549 71.626C276.948 71.9773 276.245 72.153 275.441 72.153C274.613 72.153 273.865 71.949 273.197 71.541C272.528 71.133 272.001 70.5607 271.616 69.824C271.23 69.0873 271.038 68.2487 271.038 67.308ZM278.926 67.325C278.926 66.6223 278.784 66.0103 278.501 65.489C278.217 64.9677 277.832 64.571 277.345 64.299C276.869 64.0157 276.342 63.874 275.764 63.874C275.186 63.874 274.659 64.01 274.183 64.282C273.707 64.554 273.327 64.9507 273.044 65.472C272.76 65.9933 272.619 66.6053 272.619 67.308C272.619 68.022 272.76 68.6453 273.044 69.178C273.327 69.6993 273.707 70.1017 274.183 70.385C274.659 70.657 275.186 70.793 275.764 70.793C276.342 70.793 276.869 70.657 277.345 70.385C277.832 70.1017 278.217 69.6993 278.501 69.178C278.784 68.6453 278.926 68.0277 278.926 67.325ZM287.643 62.514C288.776 62.514 289.694 62.8597 290.397 63.551C291.1 64.231 291.451 65.217 291.451 66.509V72H289.921V66.73C289.921 65.8007 289.689 65.0923 289.224 64.605C288.759 64.1063 288.125 63.857 287.32 63.857C286.504 63.857 285.852 64.112 285.365 64.622C284.889 65.132 284.651 65.8743 284.651 66.849V72H283.104V62.684H284.651V64.01C284.957 63.534 285.371 63.1657 285.892 62.905C286.425 62.6443 287.008 62.514 287.643 62.514ZM293.4 67.308C293.4 66.356 293.593 65.523 293.978 64.809C294.363 64.0837 294.89 63.5227 295.559 63.126C296.239 62.7293 296.998 62.531 297.837 62.531C298.562 62.531 299.237 62.701 299.86 63.041C300.483 63.3697 300.959 63.806 301.288 64.35V59.42H302.852V72H301.288V70.249C300.982 70.8043 300.529 71.2633 299.928 71.626C299.327 71.9773 298.625 72.153 297.82 72.153C296.993 72.153 296.239 71.949 295.559 71.541C294.89 71.133 294.363 70.5607 293.978 69.824C293.593 69.0873 293.4 68.2487 293.4 67.308ZM301.288 67.325C301.288 66.6223 301.146 66.0103 300.863 65.489C300.58 64.9677 300.194 64.571 299.707 64.299C299.231 64.0157 298.704 63.874 298.126 63.874C297.548 63.874 297.021 64.01 296.545 64.282C296.069 64.554 295.689 64.9507 295.406 65.472C295.123 65.9933 294.981 66.6053 294.981 67.308C294.981 68.022 295.123 68.6453 295.406 69.178C295.689 69.6993 296.069 70.1017 296.545 70.385C297.021 70.657 297.548 70.793 298.126 70.793C298.704 70.793 299.231 70.657 299.707 70.385C300.194 70.1017 300.58 69.6993 300.863 69.178C301.146 68.6453 301.288 68.0277 301.288 67.325ZM313.728 62.684V72H312.181V70.623C311.887 71.099 311.473 71.473 310.94 71.745C310.419 72.0057 309.841 72.136 309.206 72.136C308.481 72.136 307.829 71.9887 307.251 71.694C306.673 71.388 306.214 70.9347 305.874 70.334C305.546 69.7333 305.381 69.0023 305.381 68.141V62.684H306.911V67.937C306.911 68.855 307.144 69.5633 307.608 70.062C308.073 70.5493 308.708 70.793 309.512 70.793C310.34 70.793 310.991 70.538 311.467 70.028C311.943 69.518 312.181 68.7757 312.181 67.801V62.684H313.728Z" fill="white"/>
</svg>
