<svg width="20" height="16" viewBox="0 0 20 16" fill="none" xmlns="http://www.w3.org/2000/svg">
<path d="M1 4L6.56346 7.6333C7.87322 8.4886 8.52814 8.9163 9.23588 9.0825C9.86145 9.2293 10.5136 9.2293 11.1391 9.0825C11.8469 8.9163 12.5018 8.4886 13.8116 7.6333L19.375 4M4.26667 15H16.1083C17.2518 15 17.8235 15 18.2603 14.782C18.6444 14.5903 18.9568 14.2843 19.1525 13.908C19.375 13.4802 19.375 12.9201 19.375 11.8V4.2C19.375 3.0799 19.375 2.51984 19.1525 2.09202C18.9568 1.71569 18.6444 1.40973 18.2603 1.21799C17.8235 1 17.2518 1 16.1083 1H4.26667C3.12323 1 2.5515 1 2.11477 1.21799C1.7306 1.40973 1.41827 1.71569 1.22253 2.09202C1 2.51984 1 3.07989 1 4.2V11.8C1 12.9201 1 13.4802 1.22253 13.908C1.41827 14.2843 1.7306 14.5903 2.11477 14.782C2.5515 15 3.12322 15 4.26667 15Z" stroke="white" stroke-linecap="round" stroke-linejoin="round"/>
</svg>
