<svg width="18" height="18" viewBox="0 0 18 18" fill="none" xmlns="http://www.w3.org/2000/svg">
<path fill-rule="evenodd" clip-rule="evenodd" d="M1.98625 2.55568C2.99142 1.49682 3.34666 1.19984 3.775 1.06163C4.07144 0.983953 4.38232 0.979636 4.6808 1.04906C5.07374 1.16329 5.17768 1.2501 6.4661 2.53398C7.59806 3.66138 7.71115 3.7836 7.81966 4.00405C8.02721 4.39102 8.05964 4.84816 7.90875 5.26052C7.79453 5.57464 7.63233 5.78253 6.94584 6.4713L6.49808 6.92026C6.38055 7.03974 6.3529 7.22112 6.42955 7.3703C7.42444 9.06745 8.8358 10.4828 10.5302 11.4824C10.7253 11.5868 10.9655 11.5531 11.1242 11.399L11.5548 10.9752C11.8209 10.7023 12.1029 10.4453 12.3989 10.2054C12.864 9.91979 13.4435 9.89432 13.9318 10.138C14.1705 10.2522 14.2494 10.323 15.4167 11.4881C16.6207 12.6886 16.6549 12.7263 16.7874 13.0016C17.0368 13.4572 17.0341 14.0091 16.7806 14.4625C16.6515 14.7184 16.5727 14.8109 15.8953 15.5031C15.4864 15.9211 15.1015 16.3027 15.0398 16.3586C14.481 16.8212 13.7641 17.0482 13.0409 16.9914C11.7177 16.8708 10.4369 16.4618 9.28859 15.7932C6.74504 14.4455 4.5796 12.482 2.99028 10.082C2.64411 9.57963 2.33636 9.05192 2.06963 8.50341C1.35411 7.27698 0.984614 5.87955 1.00049 4.4598C1.05511 3.71707 1.4113 3.02905 1.98625 2.55568Z" stroke="white" stroke-linecap="round" stroke-linejoin="round"/>
</svg>
