<svg width="30" height="30" viewBox="0 0 30 30" fill="none" xmlns="http://www.w3.org/2000/svg">
<circle cx="15" cy="15" r="14.5" stroke="#F3F3F3"/>
<path d="M23 9.64706C22.3743 9.93529 21.6998 10.1247 21.001 10.2153C21.7161 9.77882 22.2686 9.08706 22.5287 8.25529C21.8542 8.66706 21.1066 8.95529 20.3184 9.12C19.6764 8.41176 18.7744 8 17.7505 8C15.8408 8 14.2806 9.58118 14.2806 11.5329C14.2806 11.8129 14.3131 12.0847 14.37 12.34C11.4771 12.1918 8.90105 10.7835 7.18642 8.65059C6.88576 9.16941 6.71511 9.77882 6.71511 10.4212C6.71511 11.6482 7.32457 12.7353 8.26721 13.3529C7.69025 13.3529 7.15392 13.1882 6.6826 12.9412V12.9659C6.6826 14.6788 7.88528 16.1118 9.47801 16.4329C8.96665 16.5748 8.42981 16.5945 7.90966 16.4906C8.13037 17.1926 8.56263 17.8069 9.14566 18.2471C9.7287 18.6873 10.4332 18.9313 11.1601 18.9447C9.9279 19.9333 8.40048 20.4677 6.82887 20.46C6.55258 20.46 6.27629 20.4435 6 20.4106C7.54398 21.4153 9.3805 22 11.347 22C17.7505 22 21.2691 16.6141 21.2691 11.9447C21.2691 11.7882 21.2691 11.64 21.261 11.4835C21.9436 10.9894 22.5287 10.3635 23 9.64706Z" fill="white"/>
</svg>
